<svg width="629" height="320" xmlns="http://www.w3.org/2000/svg" xmlns:xlink="http://www.w3.org/1999/xlink" overflow="hidden"><defs><clipPath id="clip0"><rect x="141" y="136" width="629" height="320"/></clipPath><linearGradient x1="280.5" y1="444" x2="280.5" y2="453" gradientUnits="userSpaceOnUse" spreadMethod="reflect" id="fill1"><stop offset="0" stop-color="#0E090F"/><stop offset="0.1506" stop-color="#160E18" stop-opacity="0.878431"/><stop offset="0.6857" stop-color="#2F1E33" stop-opacity="0.45098"/><stop offset="1" stop-color="#38243D" stop-opacity="0.2"/></linearGradient><linearGradient x1="630.5" y1="447" x2="630.5" y2="455" gradientUnits="userSpaceOnUse" spreadMethod="reflect" id="fill2"><stop offset="0" stop-color="#0E090F"/><stop offset="0.1506" stop-color="#160E18" stop-opacity="0.878431"/><stop offset="0.6857" stop-color="#2F1E33" stop-opacity="0.45098"/><stop offset="1" stop-color="#38243D" stop-opacity="0.2"/></linearGradient><linearGradient x1="467.5" y1="425" x2="467.5" y2="436" gradientUnits="userSpaceOnUse" spreadMethod="reflect" id="fill3"><stop offset="0" stop-color="#0E090F"/><stop offset="0.1506" stop-color="#160E18" stop-opacity="0.878431"/><stop offset="0.6857" stop-color="#2F1E33" stop-opacity="0.45098"/><stop offset="1" stop-color="#38243D" stop-opacity="0.2"/></linearGradient><linearGradient x1="184" y1="393.5" x2="313" y2="393.5" gradientUnits="userSpaceOnUse" spreadMethod="reflect" id="fill4"><stop offset="0" stop-color="#39C4E2" stop-opacity="0.968627"/><stop offset="0.5" stop-color="#1C9FA5" stop-opacity="0.984314"/><stop offset="1" stop-color="#007A68"/></linearGradient><linearGradient x1="167" y1="403.5" x2="289" y2="403.5" gradientUnits="userSpaceOnUse" spreadMethod="reflect" id="fill5"><stop offset="0" stop-color="#39C4E2" stop-opacity="0.968627"/><stop offset="0.5" stop-color="#1C9FA5" stop-opacity="0.984314"/><stop offset="1" stop-color="#007A68"/></linearGradient><linearGradient x1="435.5" y1="153" x2="435.5" y2="349" gradientUnits="userSpaceOnUse" spreadMethod="reflect" id="fill6"><stop offset="0" stop-color="#E97FB3"/><stop offset="0.212" stop-color="#AD97C6"/><stop offset="0.4946" stop-color="#64B4DE"/><stop offset="0.7295" stop-color="#2ECAEF"/><stop offset="0.9045" stop-color="#0DD7FA"/><stop offset="1" stop-color="#00DCFE"/></linearGradient><linearGradient x1="546" y1="341" x2="546" y2="225" gradientUnits="userSpaceOnUse" spreadMethod="reflect" id="fill7"><stop offset="0" stop-color="#E97FB3"/><stop offset="0.212" stop-color="#AD97C6"/><stop offset="0.4946" stop-color="#64B4DE"/><stop offset="0.7295" stop-color="#2ECAEF"/><stop offset="0.9045" stop-color="#0DD7FA"/><stop offset="1" stop-color="#00DCFE"/></linearGradient><linearGradient x1="363.5" y1="341" x2="363.5" y2="225" gradientUnits="userSpaceOnUse" spreadMethod="reflect" id="fill8"><stop offset="0" stop-color="#E97FB3"/><stop offset="0.212" stop-color="#AD97C6"/><stop offset="0.4946" stop-color="#64B4DE"/><stop offset="0.7295" stop-color="#2ECAEF"/><stop offset="0.9045" stop-color="#0DD7FA"/><stop offset="1" stop-color="#00DCFE"/></linearGradient><linearGradient x1="621" y1="409" x2="741" y2="409" gradientUnits="userSpaceOnUse" spreadMethod="reflect" id="fill9"><stop offset="0" stop-color="#39C4E2" stop-opacity="0.968627"/><stop offset="0.5" stop-color="#1C9FA5" stop-opacity="0.984314"/><stop offset="1" stop-color="#007A68"/></linearGradient><linearGradient x1="598" y1="409.5" x2="719" y2="409.5" gradientUnits="userSpaceOnUse" spreadMethod="reflect" id="fill10"><stop offset="0" stop-color="#39C4E2" stop-opacity="0.968627"/><stop offset="0.5" stop-color="#1C9FA5" stop-opacity="0.984314"/><stop offset="1" stop-color="#007A68"/></linearGradient><linearGradient x1="545.147" y1="354.592" x2="559.854" y2="217.408" gradientUnits="userSpaceOnUse" spreadMethod="reflect" id="fill11"><stop offset="0" stop-color="#E97FB3"/><stop offset="0.212" stop-color="#AD97C6"/><stop offset="0.4946" stop-color="#64B4DE"/><stop offset="0.7295" stop-color="#2ECAEF"/><stop offset="0.9045" stop-color="#0DD7FA"/><stop offset="1" stop-color="#00DCFE"/></linearGradient><linearGradient x1="604.5" y1="326" x2="604.5" y2="356" gradientUnits="userSpaceOnUse" spreadMethod="reflect" id="fill12"><stop offset="0" stop-color="#FFD1C1"/><stop offset="0.3861" stop-color="#FFCFBF"/><stop offset="0.5877" stop-color="#FFC9B7"/><stop offset="0.7467" stop-color="#FFBDA9"/><stop offset="0.8825" stop-color="#FFAE97"/><stop offset="1" stop-color="#FF9A7F"/></linearGradient><linearGradient x1="640.833" y1="267.238" x2="628.167" y2="275.762" gradientUnits="userSpaceOnUse" spreadMethod="reflect" id="fill13"><stop offset="0" stop-color="#FFD1C1"/><stop offset="0.3861" stop-color="#FFCFBF"/><stop offset="0.5877" stop-color="#FFC9B7"/><stop offset="0.7467" stop-color="#FFBDA9"/><stop offset="0.8825" stop-color="#FFAE97"/><stop offset="1" stop-color="#FF9A7F"/></linearGradient><linearGradient x1="629.545" y1="287.152" x2="637.455" y2="286.848" gradientUnits="userSpaceOnUse" spreadMethod="reflect" id="fill14"><stop offset="0" stop-color="#FFD1C1"/><stop offset="0.3861" stop-color="#FFCFBF"/><stop offset="0.5877" stop-color="#FFC9B7"/><stop offset="0.7467" stop-color="#FFBDA9"/><stop offset="0.8825" stop-color="#FFAE97"/><stop offset="1" stop-color="#FF9A7F"/></linearGradient><linearGradient x1="629.288" y1="309.281" x2="641.712" y2="308.719" gradientUnits="userSpaceOnUse" spreadMethod="reflect" id="fill15"><stop offset="0" stop-color="#FFD1C1"/><stop offset="0.3861" stop-color="#FFCFBF"/><stop offset="0.5877" stop-color="#FFC9B7"/><stop offset="0.7467" stop-color="#FFBDA9"/><stop offset="0.8825" stop-color="#FFAE97"/><stop offset="1" stop-color="#FF9A7F"/></linearGradient><linearGradient x1="472" y1="277.5" x2="634" y2="277.5" gradientUnits="userSpaceOnUse" spreadMethod="reflect" id="fill16"><stop offset="0" stop-color="#39C4E2" stop-opacity="0.968627"/><stop offset="0.5" stop-color="#1C9FA5" stop-opacity="0.984314"/><stop offset="1" stop-color="#007A68"/></linearGradient><linearGradient x1="631" y1="346" x2="631" y2="398" gradientUnits="userSpaceOnUse" spreadMethod="reflect" id="fill17"><stop offset="0" stop-color="#071786"/><stop offset="0.1509" stop-color="#05136B"/><stop offset="0.3236" stop-color="#041055"/><stop offset="0.5107" stop-color="#030E45"/><stop offset="0.7204" stop-color="#020C3B"/><stop offset="1" stop-color="#020C38"/></linearGradient><linearGradient x1="624" y1="453" x2="624" y2="431" gradientUnits="userSpaceOnUse" spreadMethod="reflect" id="fill18"><stop offset="0" stop-color="#FFD1C1"/><stop offset="0.3861" stop-color="#FFCFBF"/><stop offset="0.5877" stop-color="#FFC9B7"/><stop offset="0.7467" stop-color="#FFBDA9"/><stop offset="0.8825" stop-color="#FFAE97"/><stop offset="1" stop-color="#FF9A7F"/></linearGradient><linearGradient x1="609.768" y1="443.785" x2="638.232" y2="452.215" gradientUnits="userSpaceOnUse" spreadMethod="reflect" id="fill19"><stop offset="0" stop-color="#071786"/><stop offset="0.1509" stop-color="#05136B"/><stop offset="0.3236" stop-color="#041055"/><stop offset="0.5107" stop-color="#030E45"/><stop offset="0.7204" stop-color="#020C3B"/><stop offset="1" stop-color="#020C38"/></linearGradient><linearGradient x1="629" y1="435" x2="629" y2="391" gradientUnits="userSpaceOnUse" spreadMethod="reflect" id="fill20"><stop offset="0" stop-color="#071786"/><stop offset="0.1509" stop-color="#05136B"/><stop offset="0.3236" stop-color="#041055"/><stop offset="0.5107" stop-color="#030E45"/><stop offset="0.7204" stop-color="#020C3B"/><stop offset="1" stop-color="#020C38"/></linearGradient><linearGradient x1="623.5" y1="357" x2="623.5" y2="399" gradientUnits="userSpaceOnUse" spreadMethod="reflect" id="fill21"><stop offset="0" stop-color="#071786"/><stop offset="0.1509" stop-color="#05136B"/><stop offset="0.3236" stop-color="#041055"/><stop offset="0.5107" stop-color="#030E45"/><stop offset="0.7204" stop-color="#020C3B"/><stop offset="1" stop-color="#020C38"/></linearGradient><linearGradient x1="601" y1="453" x2="601" y2="432" gradientUnits="userSpaceOnUse" spreadMethod="reflect" id="fill22"><stop offset="0" stop-color="#FFD1C1"/><stop offset="0.3861" stop-color="#FFCFBF"/><stop offset="0.5877" stop-color="#FFC9B7"/><stop offset="0.7467" stop-color="#FFBDA9"/><stop offset="0.8825" stop-color="#FFAE97"/><stop offset="1" stop-color="#FF9A7F"/></linearGradient><linearGradient x1="587" y1="448.5" x2="615" y2="448.5" gradientUnits="userSpaceOnUse" spreadMethod="reflect" id="fill23"><stop offset="0" stop-color="#071786"/><stop offset="0.1509" stop-color="#05136B"/><stop offset="0.3236" stop-color="#041055"/><stop offset="0.5107" stop-color="#030E45"/><stop offset="0.7204" stop-color="#020C3B"/><stop offset="1" stop-color="#020C38"/></linearGradient><linearGradient x1="610.5" y1="436" x2="610.5" y2="394" gradientUnits="userSpaceOnUse" spreadMethod="reflect" id="fill24"><stop offset="0" stop-color="#071786"/><stop offset="0.1509" stop-color="#05136B"/><stop offset="0.3236" stop-color="#041055"/><stop offset="0.5107" stop-color="#030E45"/><stop offset="0.7204" stop-color="#020C3B"/><stop offset="1" stop-color="#020C38"/></linearGradient><linearGradient x1="616.498" y1="306.846" x2="613.503" y2="306.154" gradientUnits="userSpaceOnUse" spreadMethod="reflect" id="fill25"><stop offset="0" stop-color="#E2B691"/><stop offset="0.5" stop-color="#E8A47C"/><stop offset="1" stop-color="#EF9367"/></linearGradient><linearGradient x1="631.824" y1="313.681" x2="620.176" y2="310.319" gradientUnits="userSpaceOnUse" spreadMethod="reflect" id="fill26"><stop offset="0" stop-color="#FFD1C1"/><stop offset="0.3861" stop-color="#FFCFBF"/><stop offset="0.5877" stop-color="#FFC9B7"/><stop offset="0.7467" stop-color="#FFBDA9"/><stop offset="0.8825" stop-color="#FFAE97"/><stop offset="1" stop-color="#FF9A7F"/></linearGradient><linearGradient x1="633.305" y1="310.303" x2="611.695" y2="299.697" gradientUnits="userSpaceOnUse" spreadMethod="reflect" id="fill27"><stop offset="0" stop-color="#FFD1C1"/><stop offset="0.3861" stop-color="#FFCFBF"/><stop offset="0.5877" stop-color="#FFC9B7"/><stop offset="0.7467" stop-color="#FFBDA9"/><stop offset="0.8825" stop-color="#FFAE97"/><stop offset="1" stop-color="#FF9A7F"/></linearGradient><linearGradient x1="635" y1="302" x2="608" y2="302" gradientUnits="userSpaceOnUse" spreadMethod="reflect" id="fill28"><stop offset="0" stop-color="#071786"/><stop offset="0.1509" stop-color="#05136B"/><stop offset="0.3236" stop-color="#041055"/><stop offset="0.5107" stop-color="#030E45"/><stop offset="0.7204" stop-color="#020C3B"/><stop offset="1" stop-color="#020C38"/></linearGradient><linearGradient x1="625.912" y1="305.841" x2="620.088" y2="304.159" gradientUnits="userSpaceOnUse" spreadMethod="reflect" id="fill29"><stop offset="0" stop-color="#FFD1C1"/><stop offset="0.3861" stop-color="#FFCFBF"/><stop offset="0.5877" stop-color="#FFC9B7"/><stop offset="0.7467" stop-color="#FFBDA9"/><stop offset="0.8825" stop-color="#FFAE97"/><stop offset="1" stop-color="#FF9A7F"/></linearGradient><linearGradient x1="628.049" y1="364.607" x2="625.951" y2="316.393" gradientUnits="userSpaceOnUse" spreadMethod="reflect" id="fill30"><stop offset="0" stop-color="#E7E6FF"/><stop offset="0.3393" stop-color="#C9D2F8"/><stop offset="0.7637" stop-color="#AABDF1"/><stop offset="1" stop-color="#9EB5EE"/></linearGradient><linearGradient x1="601.403" y1="333.38" x2="593.597" y2="326.62" gradientUnits="userSpaceOnUse" spreadMethod="reflect" id="fill31"><stop offset="0" stop-color="#FFD1C1"/><stop offset="0.3861" stop-color="#FFCFBF"/><stop offset="0.5877" stop-color="#FFC9B7"/><stop offset="0.7467" stop-color="#FFBDA9"/><stop offset="0.8825" stop-color="#FFAE97"/><stop offset="1" stop-color="#FF9A7F"/></linearGradient><linearGradient x1="618.501" y1="326" x2="618.499" y2="356" gradientUnits="userSpaceOnUse" spreadMethod="reflect" id="fill32"><stop offset="0" stop-color="#FFD1C1"/><stop offset="0.3861" stop-color="#FFCFBF"/><stop offset="0.5877" stop-color="#FFC9B7"/><stop offset="0.7467" stop-color="#FFBDA9"/><stop offset="0.8825" stop-color="#FFAE97"/><stop offset="1" stop-color="#FF9A7F"/></linearGradient><linearGradient x1="291.607" y1="429.5" x2="262.393" y2="452.5" gradientUnits="userSpaceOnUse" spreadMethod="reflect" id="fill33"><stop offset="0" stop-color="#F4F3F1"/><stop offset="0.5" stop-color="#F9D2D6"/><stop offset="1" stop-color="#FFB2BC"/></linearGradient><linearGradient x1="274" y1="456" x2="280" y2="438" gradientUnits="userSpaceOnUse" spreadMethod="reflect" id="fill34"><stop offset="0" stop-color="#071786"/><stop offset="0.1509" stop-color="#05136B"/><stop offset="0.3236" stop-color="#041055"/><stop offset="0.5107" stop-color="#030E45"/><stop offset="0.7204" stop-color="#020C3B"/><stop offset="1" stop-color="#020C38"/></linearGradient><linearGradient x1="276.695" y1="394.824" x2="250.305" y2="393.176" gradientUnits="userSpaceOnUse" spreadMethod="reflect" id="fill35"><stop offset="0" stop-color="#071786"/><stop offset="0.1509" stop-color="#05136B"/><stop offset="0.3236" stop-color="#041055"/><stop offset="0.5107" stop-color="#030E45"/><stop offset="0.7204" stop-color="#020C3B"/><stop offset="1" stop-color="#020C38"/></linearGradient><linearGradient x1="291" y1="338.5" x2="285" y2="338.5" gradientUnits="userSpaceOnUse" spreadMethod="reflect" id="fill36"><stop offset="0" stop-color="#F9FBFC"/><stop offset="0.5289" stop-color="#F7FAFC"/><stop offset="0.7194" stop-color="#F0F5FD"/><stop offset="0.8552" stop-color="#E5ECFD"/><stop offset="0.9642" stop-color="#D4E0FF"/><stop offset="0.9973" stop-color="#CDDBFF"/><stop offset="1" stop-color="#CDDBFF"/></linearGradient><linearGradient x1="287" y1="326.5" x2="300" y2="326.5" gradientUnits="userSpaceOnUse" spreadMethod="reflect" id="fill37"><stop offset="0" stop-color="#FACED3"/><stop offset="0.5" stop-color="#FCC0C7"/><stop offset="1" stop-color="#FFB2BC"/></linearGradient><linearGradient x1="296.448" y1="314.611" x2="297.552" y2="308.389" gradientUnits="userSpaceOnUse" spreadMethod="reflect" id="fill38"><stop offset="0" stop-color="#F4F3F1"/><stop offset="0.5" stop-color="#F9D2D6"/><stop offset="1" stop-color="#FFB2BC"/></linearGradient><linearGradient x1="270.557" y1="428.772" x2="239.443" y2="451.228" gradientUnits="userSpaceOnUse" spreadMethod="reflect" id="fill39"><stop offset="0" stop-color="#F4F3F1"/><stop offset="0.5" stop-color="#F9D2D6"/><stop offset="1" stop-color="#FFB2BC"/></linearGradient><linearGradient x1="250.862" y1="456.345" x2="259.138" y2="435.655" gradientUnits="userSpaceOnUse" spreadMethod="reflect" id="fill40"><stop offset="0" stop-color="#071786"/><stop offset="0.1509" stop-color="#05136B"/><stop offset="0.3236" stop-color="#041055"/><stop offset="0.5107" stop-color="#030E45"/><stop offset="0.7204" stop-color="#020C3B"/><stop offset="1" stop-color="#020C38"/></linearGradient><linearGradient x1="265.365" y1="391.4" x2="237.635" y2="393.601" gradientUnits="userSpaceOnUse" spreadMethod="reflect" id="fill41"><stop offset="0" stop-color="#071786"/><stop offset="0.1509" stop-color="#05136B"/><stop offset="0.3236" stop-color="#041055"/><stop offset="0.5107" stop-color="#030E45"/><stop offset="0.7204" stop-color="#020C3B"/><stop offset="1" stop-color="#020C38"/></linearGradient><linearGradient x1="255.297" y1="367.695" x2="257.703" y2="311.305" gradientUnits="userSpaceOnUse" spreadMethod="reflect" id="fill42"><stop offset="0" stop-color="#E7E6FF"/><stop offset="0.3393" stop-color="#C9D2F8"/><stop offset="0.7637" stop-color="#AABDF1"/><stop offset="1" stop-color="#9EB5EE"/></linearGradient><linearGradient x1="266" y1="323.5" x2="261" y2="323.5" gradientUnits="userSpaceOnUse" spreadMethod="reflect" id="fill43"><stop offset="0" stop-color="#071786"/><stop offset="0.1509" stop-color="#05136B"/><stop offset="0.3236" stop-color="#041055"/><stop offset="0.5107" stop-color="#030E45"/><stop offset="0.7204" stop-color="#020C3B"/><stop offset="1" stop-color="#020C38"/></linearGradient><linearGradient x1="271" y1="340.5" x2="264" y2="340.5" gradientUnits="userSpaceOnUse" spreadMethod="reflect" id="fill44"><stop offset="0" stop-color="#071786"/><stop offset="0.1509" stop-color="#05136B"/><stop offset="0.3236" stop-color="#041055"/><stop offset="0.5107" stop-color="#030E45"/><stop offset="0.7204" stop-color="#020C3B"/><stop offset="1" stop-color="#020C38"/></linearGradient><linearGradient x1="265.034" y1="313.04" x2="251.966" y2="314.96" gradientUnits="userSpaceOnUse" spreadMethod="reflect" id="fill45"><stop offset="0" stop-color="#F4F3F1"/><stop offset="0.5" stop-color="#F9D2D6"/><stop offset="1" stop-color="#FFB2BC"/></linearGradient><linearGradient x1="269.015" y1="301.59" x2="249.985" y2="307.41" gradientUnits="userSpaceOnUse" spreadMethod="reflect" id="fill46"><stop offset="0" stop-color="#F4F3F1"/><stop offset="0.5" stop-color="#F9D2D6"/><stop offset="1" stop-color="#FFB2BC"/></linearGradient><linearGradient x1="253.235" y1="287.827" x2="262.765" y2="315.173" gradientUnits="userSpaceOnUse" spreadMethod="reflect" id="fill47"><stop offset="0" stop-color="#071786"/><stop offset="0.1509" stop-color="#05136B"/><stop offset="0.3236" stop-color="#041055"/><stop offset="0.5107" stop-color="#030E45"/><stop offset="0.7204" stop-color="#020C3B"/><stop offset="1" stop-color="#020C38"/></linearGradient><linearGradient x1="254.506" y1="305.612" x2="250.494" y2="306.389" gradientUnits="userSpaceOnUse" spreadMethod="reflect" id="fill48"><stop offset="0" stop-color="#F4F3F1"/><stop offset="0.5" stop-color="#F9D2D6"/><stop offset="1" stop-color="#FFB2BC"/></linearGradient><linearGradient x1="265" y1="322" x2="265" y2="315" gradientUnits="userSpaceOnUse" spreadMethod="reflect" id="fill49"><stop offset="0" stop-color="#E7E6FF"/><stop offset="0.3393" stop-color="#C9D2F8"/><stop offset="0.7637" stop-color="#AABDF1"/><stop offset="1" stop-color="#9EB5EE"/></linearGradient><linearGradient x1="267" y1="321" x2="267" y2="315" gradientUnits="userSpaceOnUse" spreadMethod="reflect" id="fill50"><stop offset="0" stop-color="#F9FBFC"/><stop offset="0.9973" stop-color="#CDDBFF"/><stop offset="1" stop-color="#CDDBFF"/></linearGradient><linearGradient x1="258" y1="323" x2="258" y2="312" gradientUnits="userSpaceOnUse" spreadMethod="reflect" id="fill51"><stop offset="0" stop-color="#F9FBFC"/><stop offset="0.3069" stop-color="#F0F5FD"/><stop offset="0.8031" stop-color="#D8E3FE"/><stop offset="0.9973" stop-color="#CDDBFF"/><stop offset="1" stop-color="#CDDBFF"/></linearGradient><linearGradient x1="262.5" y1="322" x2="262.5" y2="319" gradientUnits="userSpaceOnUse" spreadMethod="reflect" id="fill52"><stop offset="0" stop-color="#E7E6FF"/><stop offset="0.3393" stop-color="#C9D2F8"/><stop offset="0.7637" stop-color="#AABDF1"/><stop offset="1" stop-color="#9EB5EE"/></linearGradient><linearGradient x1="280" y1="371.5" x2="442" y2="371.5" gradientUnits="userSpaceOnUse" spreadMethod="reflect" id="fill53"><stop offset="0" stop-color="#39C4E2" stop-opacity="0.968627"/><stop offset="0.5" stop-color="#1C9FA5" stop-opacity="0.984314"/><stop offset="1" stop-color="#007A68"/></linearGradient><linearGradient x1="269" y1="347" x2="260" y2="347" gradientUnits="userSpaceOnUse" spreadMethod="reflect" id="fill54"><stop offset="0" stop-color="#F9FBFC"/><stop offset="0.3069" stop-color="#F0F5FD"/><stop offset="0.8031" stop-color="#D8E3FE"/><stop offset="0.9973" stop-color="#CDDBFF"/><stop offset="1" stop-color="#CDDBFF"/></linearGradient><linearGradient x1="282.683" y1="333.194" x2="284.317" y2="352.806" gradientUnits="userSpaceOnUse" spreadMethod="reflect" id="fill55"><stop offset="0" stop-color="#F4F3F1"/><stop offset="0.5" stop-color="#F9D2D6"/><stop offset="1" stop-color="#FFB2BC"/></linearGradient><linearGradient x1="268" y1="346.5" x2="259" y2="346.5" gradientUnits="userSpaceOnUse" spreadMethod="reflect" id="fill56"><stop offset="0" stop-color="#F9FBFC"/><stop offset="0.3069" stop-color="#F0F5FD"/><stop offset="0.8031" stop-color="#D8E3FE"/><stop offset="0.9973" stop-color="#CDDBFF"/><stop offset="1" stop-color="#CDDBFF"/></linearGradient><linearGradient x1="663.547" y1="224.046" x2="663.453" y2="210.954" gradientUnits="userSpaceOnUse" spreadMethod="reflect" id="fill57"><stop offset="0" stop-color="#B866FA"/><stop offset="0.5" stop-color="#98A1FC"/><stop offset="1" stop-color="#78DDFE"/></linearGradient><linearGradient x1="508.583" y1="164.078" x2="508.417" y2="141.922" gradientUnits="userSpaceOnUse" spreadMethod="reflect" id="fill58"><stop offset="0" stop-color="#B866FA"/><stop offset="0.5" stop-color="#98A1FC"/><stop offset="1" stop-color="#78DDFE"/></linearGradient><linearGradient x1="720.097" y1="289.359" x2="720.903" y2="266.641" gradientUnits="userSpaceOnUse" spreadMethod="reflect" id="fill59"><stop offset="0" stop-color="#B866FA"/><stop offset="0.5" stop-color="#98A1FC"/><stop offset="1" stop-color="#78DDFE"/></linearGradient><linearGradient x1="346.561" y1="154.064" x2="346.439" y2="135.936" gradientUnits="userSpaceOnUse" spreadMethod="reflect" id="fill60"><stop offset="0" stop-color="#B866FA"/><stop offset="0.5" stop-color="#98A1FC"/><stop offset="1" stop-color="#78DDFE"/></linearGradient><linearGradient x1="278.029" y1="186.028" x2="277.971" y2="177.972" gradientUnits="userSpaceOnUse" spreadMethod="reflect" id="fill61"><stop offset="0" stop-color="#B866FA"/><stop offset="0.5" stop-color="#98A1FC"/><stop offset="1" stop-color="#78DDFE"/></linearGradient><linearGradient x1="594.554" y1="185.05" x2="594.446" y2="170.95" gradientUnits="userSpaceOnUse" spreadMethod="reflect" id="fill62"><stop offset="0" stop-color="#B866FA"/><stop offset="0.5" stop-color="#98A1FC"/><stop offset="1" stop-color="#78DDFE"/></linearGradient><linearGradient x1="205.065" y1="244.064" x2="204.935" y2="225.936" gradientUnits="userSpaceOnUse" spreadMethod="reflect" id="fill63"><stop offset="0" stop-color="#B866FA"/><stop offset="0.5" stop-color="#98A1FC"/><stop offset="1" stop-color="#78DDFE"/></linearGradient></defs><g clip-path="url(#clip0)" transform="translate(-141 -136)"><path d="M419 448.5C419 446.015 356.992 444 280.499 444 204.008 444 142 446.015 142 448.5 142 450.985 204.008 453 280.499 453 356.992 453.001 419 450.985 419 448.5Z" fill="url(#fill1)" fill-rule="evenodd"/><path d="M769 451C769 448.791 706.992 447 630.5 447 554.009 447 492 448.791 492 451 492 453.209 554.008 455 630.5 455 706.992 455 769 453.209 769 451Z" fill="url(#fill2)" fill-rule="evenodd"/><path d="M730 430.5C730 427.462 612.475 425 467.501 425 322.525 425 205 427.462 205 430.5 205 433.538 322.525 436 467.501 436 612.475 436 730 433.538 730 430.5Z" fill="url(#fill3)" fill-rule="evenodd"/><path d="M315.254 418.614 198.034 443.921C196.157 444.327 194.306 443.132 193.9 441.253L179.079 372.523C178.674 370.644 179.868 368.792 181.746 368.386L298.966 343.079C300.843 342.673 302.694 343.868 303.1 345.747L317.921 414.477C318.326 416.356 317.132 418.208 315.254 418.614Z" fill="#FFFFFF" fill-rule="evenodd"/><path d="M310.237 414.249 200.791 437.92C198.901 438.329 197.038 437.124 196.63 435.23L184.08 376.921C183.671 375.027 184.874 373.159 186.764 372.751L296.209 349.08C298.099 348.671 299.962 349.876 300.37 351.77L312.921 410.079C313.328 411.972 312.127 413.84 310.237 414.249Z" fill="url(#fill4)" fill-rule="evenodd"/><path d="M268.149 397.612 253.299 381 246.221 402.064 243.709 409.541 243.709 409.541 234.13 398.827 229.565 412.413 225 426 239.144 423.129 253.288 420.257 261.072 418.676 283 414.224Z" fill="#FFFFFF" fill-rule="evenodd"/><path d="M244.826 377.396C245.767 381.724 242.803 385.95 238.204 386.836 233.606 387.722 229.116 384.932 228.174 380.604 227.233 376.276 230.197 372.05 234.796 371.164 239.393 370.278 243.884 373.069 244.826 377.396Z" fill="#FFFFFF" fill-rule="evenodd"/><path d="M289.664 439.27 169.042 444.996C167.11 445.088 165.469 443.604 165.377 441.682L162.004 371.376C161.912 369.454 163.404 367.821 165.336 367.73L285.958 362.004C287.89 361.912 289.531 363.396 289.623 365.318L292.996 435.624C293.088 437.546 291.597 439.179 289.664 439.27Z" fill="#FFFFFF" fill-rule="evenodd"/><path d="M285.656 433.717 173.521 438.996C171.585 439.087 169.941 437.613 169.848 435.702L167.004 376.907C166.912 374.997 168.406 373.374 170.343 373.283L282.479 368.004C284.415 367.913 286.059 369.388 286.152 371.298L288.996 430.093C289.088 432.003 287.594 433.627 285.656 433.717Z" fill="url(#fill5)" fill-rule="evenodd"/><path d="M246.13 410.905 234.261 392 223.824 411.733 220.119 418.738 220.119 418.738 212.464 406.543 205.732 419.272 199 432 213.387 431.466 227.776 430.933 235.694 430.639 258 429.812Z" fill="#FFFFFF" fill-rule="evenodd"/><path d="M226.994 387.185C227.168 391.876 223.507 395.82 218.815 395.994 214.124 396.168 210.18 392.507 210.006 387.815 209.832 383.124 213.493 379.18 218.185 379.006 222.876 378.832 226.82 382.494 226.994 387.185Z" fill="#FFFFFF" fill-rule="evenodd"/><path d="M645.322 349C664.234 349 679.865 333.79 679.999 314.804 680 314.673 680 314.541 680 314.411 680 294.193 669.001 276.565 652.69 267.194 651.726 228.995 620.601 198.32 582.318 198.32 564.482 198.32 548.209 204.99 535.802 215.962 523.242 179.326 488.613 153 447.856 153 407.766 153 373.603 178.47 360.542 214.171 348.424 204.265 332.965 198.32 316.12 198.32 280.253 198.32 250.67 225.248 246.285 260.061 245.912 260.053 245.542 260.032 245.166 260.032 215.251 260.032 191 284.379 191 314.411 191 314.542 191.001 314.674 191.001 314.804 191.135 333.79 206.766 349 225.678 349L645.322 349Z" fill="url(#fill6)" fill-rule="evenodd"/><path d="M467 229 467 337C467 339.209 468.787 341 470.992 341L621.008 341C623.213 341 625 339.209 625 337L625 229C625 226.791 623.213 225 621.008 225L470.992 225C468.787 225.001 467 226.792 467 229Z" fill="url(#fill7)" fill-rule="evenodd"/><path d="M285 229 285 337C285 339.209 286.776 341 288.967 341L438.033 341C440.224 341 442 339.209 442 337L442 229C442 226.791 440.224 225 438.033 225L288.967 225C286.776 225.001 285 226.792 285 229Z" fill="url(#fill8)" fill-rule="evenodd"/><path d="M741.591 446.157 621.248 448.999C619.32 449.045 617.72 447.526 617.674 445.606L616.001 375.401C615.955 373.482 617.481 371.889 619.409 371.843L739.752 369.001C741.68 368.955 743.28 370.474 743.326 372.394L744.999 442.599C745.045 444.518 743.519 446.112 741.591 446.157Z" fill="#FFFFFF" fill-rule="evenodd"/><path d="M737.592 440.388 625.981 442.999C624.053 443.044 622.454 441.54 622.408 439.639L621.001 381.136C620.955 379.235 622.481 377.657 624.408 377.612L736.019 375.001C737.947 374.956 739.546 376.46 739.592 378.361L740.999 436.864C741.045 438.765 739.519 440.343 737.592 440.388Z" fill="url(#fill9)" fill-rule="evenodd"/><path d="M698.594 416.115 687.188 397 676.288 416.406 672.418 423.296 672.418 423.296 665.061 410.966 658.031 423.483 651 436 665.388 435.813 679.776 435.625 687.694 435.521 710 435.231Z" fill="#FFFFFF" fill-rule="evenodd"/><path d="M679.999 392.389C680.06 397.083 676.305 400.937 671.611 400.999 666.917 401.06 663.063 397.305 663.001 392.611 662.94 387.917 666.695 384.063 671.389 384.001 676.083 383.94 679.938 387.695 679.999 392.389Z" fill="#FFFFFF" fill-rule="evenodd"/><path d="M719.633 446.571 599.217 450.998C597.288 451.069 595.666 449.562 595.595 447.632L593.002 377.052C592.931 375.122 594.438 373.5 596.367 373.429L716.783 369.002C718.712 368.931 720.334 370.438 720.405 372.368L722.998 442.948C723.069 444.878 721.562 446.5 719.633 446.571Z" fill="#FFFFFF" fill-rule="evenodd"/><path d="M715.63 440.861 603.812 444.998C601.881 445.069 600.258 443.551 600.187 441.608L598.002 381.788C597.931 379.844 599.439 378.21 601.37 378.139L713.188 374.002C715.119 373.931 716.742 375.449 716.813 377.392L718.998 437.212C719.069 439.156 717.561 440.79 715.63 440.861Z" fill="url(#fill10)" fill-rule="evenodd"/><path d="M676.342 417.221 664.684 398 654.036 417.81 650.256 424.842 650.256 424.842 642.737 412.444 635.869 425.222 629 438 643.387 437.621 657.776 437.24 665.694 437.031 688 436.443Z" fill="#FFFFFF" fill-rule="evenodd"/><path d="M656.997 393.278C657.119 397.971 653.415 401.875 648.722 401.997 644.029 402.12 640.125 398.415 640.003 393.722 639.881 389.029 643.585 385.125 648.278 385.003 652.97 384.881 656.874 388.585 656.997 393.278Z" fill="#FFFFFF" fill-rule="evenodd"/><path d="M467.5 229.5 467.5 337.5C467.5 339.71 469.287 341.5 471.492 341.5L621.508 341.5C623.713 341.5 625.5 339.71 625.5 337.5L625.5 229.5C625.5 227.291 623.713 225.5 621.508 225.5L471.492 225.5C469.287 225.501 467.5 227.292 467.5 229.5Z" stroke="#FFFFFF" stroke-miterlimit="8" stroke-dasharray="5.30835 5.30835" fill="none" fill-rule="evenodd"/><path d="M285.5 229.5 285.5 337.5C285.5 339.71 287.276 341.5 289.467 341.5L438.533 341.5C440.724 341.5 442.5 339.71 442.5 337.5L442.5 229.5C442.5 227.291 440.724 225.5 438.533 225.5L289.467 225.5C287.276 225.501 285.5 227.292 285.5 229.5Z" stroke="#FFFFFF" stroke-miterlimit="8" stroke-dasharray="5.30835 5.30835" fill="none" fill-rule="evenodd"/><path d="M623.001 345.965 467.998 324.063C466.091 323.793 464.764 322.037 465.035 320.14L478.054 228.982C478.324 227.085 480.091 225.766 481.998 226.035L637.002 247.936C638.909 248.206 640.236 249.963 639.965 251.859L626.946 343.017C626.675 344.915 624.909 346.234 623.001 345.965Z" fill="url(#fill11)" fill-rule="evenodd"/><path d="M590 326C590 326 590.202 330.111 592.351 333.021 594.5 335.932 597.106 337.22 599.095 340.273 600.659 342.673 616.652 360.777 618.863 354.794 619.152 354.011 618.932 353.136 618.677 352.339 616.289 344.881 609.39 341.274 603.444 336.99L601.2 335.205C601.2 335.205 600.482 331.005 598.156 328.543L590 326Z" fill="url(#fill12)" fill-rule="evenodd"/><path d="M630.416 275.428C630.417 275.882 630.42 276.309 630.421 276.75 632.224 276.921 634.037 276.992 635.844 277 635.738 276.418 635.659 275.988 635.62 275.768L636.005 274.712C636.364 273.962 636.722 273.212 637.082 272.463 637.313 271.981 637.544 271.498 637.774 271.016 638.063 270.411 638.155 269.801 638.588 269.25 638.965 268.77 639.429 268.357 639.852 267.914 639.921 267.842 639.993 267.761 640 267.662 640.009 267.522 639.891 267.4 639.781 267.297 639.529 267.059 639.252 266.81 638.909 266.748 638.714 266.713 638.519 266.742 638.327 266.771 638.038 266.815 637.734 266.864 637.477 266.991 637.211 267.123 637.145 267.31 636.965 267.502 636.667 267.819 636.193 268.053 635.834 268.317 635.9 268.269 635.614 267.405 635.595 267.32 635.493 266.888 635.381 266.493 635.12 266.106 635.095 266.069 635.066 266.03 635.022 266.017 634.978 266.003 634.932 266.019 634.889 266.029 634.702 266.071 634.516 265.989 634.33 266.001 634.138 266.013 633.988 266.145 633.8 266.172 633.599 266.201 633.397 266.108 633.201 266.066 632.869 265.995 632.556 266.063 632.244 266.143 632.081 266.186 631.957 266.227 631.783 266.188 631.618 266.151 631.463 266.068 631.291 266.075 631.058 266.085 630.951 266.299 630.803 266.433 630.6 266.615 630.414 266.495 630.17 266.53 629.932 266.565 629.83 266.816 629.767 267.032 629.53 267.857 629.005 268.884 629 269.742 628.996 270.528 629.451 271.528 629.65 272.306 629.916 273.347 630.181 274.389 630.446 275.43L630.416 275.428Z" fill="url(#fill13)" fill-rule="evenodd"/><path d="M631.831 298.084C631.354 297.783 630.93 297.407 630.627 296.925 630.056 296.017 630.019 294.898 630.009 293.847 629.971 289.812 630.051 285.784 630.251 281.77 630.35 279.764 630.402 277.028 630.589 275.036L635.4 275C635.4 275 635.952 287.567 636.858 294.078 637.025 295.284 637.169 296.61 636.526 297.577 635.564 299.021 634.658 299.333 632.992 298.663 632.597 298.504 632.199 298.316 631.831 298.084Z" fill="url(#fill14)" fill-rule="evenodd"/><path d="M630.385 295.132C629.832 296.336 629.976 297.858 630.194 299.452 630.722 303.33 631.194 307.213 631.683 311.094 631.901 312.822 632.12 314.551 632.356 316.278 632.836 319.805 633.482 324.996 637.856 325 638.852 325.001 639.972 323.983 640.451 323.151 640.812 322.526 640.964 321.726 640.994 320.853 641.059 318.998 640.58 316.81 640.4 315.247 640.029 312.037 639.604 308.829 639.086 305.631 638.755 303.577 638.398 301.523 637.95 299.485 637.582 297.807 637.275 295.657 636.29 294.214 635.24 292.674 633.309 292.793 631.978 293.503 631.182 293.929 630.682 294.484 630.385 295.132Z" fill="url(#fill15)" fill-rule="evenodd"/><path d="M630 308.923C630.611 314.155 630.675 326.589 636.889 326.992 643.764 327.438 641.714 308 641.714 308L630 308.923Z" fill="#FFFFFF" fill-rule="evenodd"/><path d="M623.001 337.965 467.998 316.063C466.091 315.794 464.764 314.037 465.035 312.14L478.054 220.982C478.324 219.085 480.091 217.766 481.998 218.035L637.002 239.936C638.909 240.206 640.236 241.963 639.965 243.86L626.946 335.017C626.675 336.915 624.909 338.235 623.001 337.965Z" fill="#FFFFFF" fill-rule="evenodd"/><path d="M619.014 329.965 475 309.488C473.092 309.217 471.764 307.448 472.035 305.538L483.039 228.003C483.31 226.093 485.077 224.764 486.986 225.035L631 245.512C632.908 245.783 634.236 247.552 633.965 249.462L622.961 326.997C622.69 328.908 620.922 330.236 619.014 329.965Z" fill="url(#fill16)" fill-rule="evenodd"/><path d="M574.577 291.5 564.155 265 546.221 287.2 539.856 295.081 539.856 295.081 533.133 277.989 521.566 292.309 510 306.628 528.289 309.401 546.579 312.175 556.645 313.701 585 318Z" fill="#FFFFFF" fill-rule="evenodd"/><path d="M555.872 256.662C554.953 262.667 549.342 266.79 543.338 265.872 537.334 264.954 533.21 259.342 534.128 253.338 535.046 247.333 540.658 243.209 546.662 244.128 552.666 245.046 556.79 250.658 555.872 256.662Z" fill="#FFFFFF" fill-rule="evenodd"/><path d="M620 332 629 332 629 334 620 334Z" fill="#F2F2F2" fill-rule="evenodd"/><path d="M622 335 629 335 629 337 622 337Z" fill="#F2F2F2" fill-rule="evenodd"/><path d="M624 338 629 338 629 340 624 340Z" fill="#F2F2F2" fill-rule="evenodd"/><path d="M627 341 629 341 629 344 627 344Z" fill="#F2F2F2" fill-rule="evenodd"/><path d="M622.42 396.024C620.442 388.569 620.127 380.699 620.002 373.029 619.939 369.218 621.889 355.277 622.107 351.467 622.519 344.254 624.036 345.633 632.773 347.469 633.879 347.701 634.926 348.145 635.859 348.773 646.843 356.159 640.335 373.091 637.363 382.633 636.072 386.777 634.274 391.728 632.721 395.784 627.076 400.626 622.42 396.024 622.42 396.024Z" fill="url(#fill17)" fill-rule="evenodd"/><path d="M637.254 445.079C637.115 444.466 636.782 443.874 636.502 443.294 636.423 443.129 635.758 441.508 635.733 441.321 635.373 438.595 635.171 431 635.171 431L627.438 431.582C627.438 431.582 629.145 438.025 628.412 441.965L628.421 441.965C625.177 444.12 619.31 447.136 619.31 447.136 619.31 447.136 612.518 448.841 612.171 449.026 611.824 449.212 610.949 449.53 610.011 450.544 610.011 450.544 609.366 452.356 618.1 452.925 618.1 452.925 621.897 453.401 627.782 451.958 629.064 451.734 630.347 451.51 631.63 451.286 632.947 451.056 636.924 450.579 637.408 450.157 637.596 449.995 637.718 449.835 637.795 449.671 638.385 448.421 637.541 446.351 637.254 445.079Z" fill="url(#fill18)" fill-rule="evenodd"/><path d="M636.52 443.305C634.59 443.78 632.466 443.848 630.701 443.786 629.441 443.742 628.01 443.506 626.741 443 623.486 444.97 619.311 447.122 619.311 447.122 619.311 447.122 612.519 448.83 612.172 449.016 611.824 449.202 610.95 449.522 610.011 450.538 610.011 450.538 609.366 452.355 618.1 452.924 618.1 452.924 621.897 453.402 627.782 451.955 629.065 451.731 630.347 451.506 631.631 451.282 632.947 451.051 636.924 450.573 637.409 450.15 637.596 449.987 637.719 449.827 637.796 449.663 638.385 448.409 637.54 446.335 637.253 445.059 637.119 444.459 636.797 443.875 636.52 443.305Z" fill="url(#fill19)" fill-rule="evenodd"/><path d="M635.533 434.637C636.256 425.517 636.765 405.559 632.068 394.584 631.33 392.859 629.35 391.08 627.326 391.003 625.763 390.944 623.523 391.703 622.666 393.049 621.959 394.161 621.927 397.711 622.065 398.937 622.454 402.411 625.729 424.543 627.284 435L635.533 434.637Z" fill="url(#fill20)" fill-rule="evenodd"/><path d="M613.304 357 629.972 357C629.993 357.035 630.019 357.068 630.038 357.103L630.056 357 641.635 357 641.653 357.017C642.506 362.623 641.519 366.58 641.519 366.58 639.863 373.813 630.691 376.645 627.558 377.411 625.783 380.941 623.763 384.215 622.231 386.869 620.11 390.544 617.905 394.185 615.552 397.724 609.106 401.171 605.044 396.542 605.044 396.542 604.734 389.049 606.109 381.504 607.622 374.187 608.233 371.228 611.542 362.194 613.304 357Z" fill="url(#fill21)" fill-rule="evenodd"/><path d="M614.628 446.73C614.56 446.096 614.295 445.46 614.082 444.841 614.022 444.665 613.545 442.952 613.541 442.76 613.489 439.962 614.138 432.256 614.138 432.256L606.411 432C606.411 432 607.381 438.706 606.216 442.614L606.225 442.615C602.768 444.442 596.618 446.852 596.618 446.852 596.618 446.852 589.698 447.836 589.333 447.985 588.968 448.135 588.066 448.361 587.023 449.284 587.023 449.284 586.181 451.048 594.771 452.577 594.771 452.577 598.481 453.474 604.474 452.656 605.769 452.569 607.066 452.482 608.362 452.395 609.693 452.306 613.686 452.258 614.214 451.885 614.419 451.74 614.558 451.592 614.653 451.435 615.375 450.235 614.77 448.049 614.628 446.73Z" fill="url(#fill22)" fill-rule="evenodd"/><path d="M610 433C610.173 433.328 610.324 433.662 610.458 434 610.647 433.676 610.827 433.35 611 433.022L610 433Z" fill="#FFD9B6" fill-rule="evenodd"/><path d="M614.081 445.201C614.046 445.104 613.872 444.516 613.73 444 613.432 444.147 613.136 444.286 612.849 444.417 609.521 445.932 605.96 445.702 602.455 444.921 602.389 444.906 602.327 444.889 602.266 444.87 599.395 446.082 596.618 447.123 596.618 447.123 596.618 447.123 589.698 448.063 589.333 448.207 588.968 448.35 588.066 448.567 587.022 449.449 587.022 449.449 586.182 451.135 594.771 452.596 594.771 452.596 598.48 453.453 604.473 452.671 605.769 452.588 607.065 452.505 608.362 452.422 609.692 452.337 613.686 452.291 614.214 451.934 614.418 451.796 614.557 451.654 614.652 451.504 615.375 450.357 614.77 448.267 614.628 447.006 614.558 446.4 614.294 445.791 614.081 445.201Z" fill="url(#fill23)" fill-rule="evenodd"/><path d="M613.504 436C614.942 428.03 615.859 419.888 615.986 411.776 616.033 408.888 615.968 405.994 615.695 403.119 615.42 400.225 615.648 396.056 612.712 394.589 610.995 393.731 608.615 393.816 606.952 394.805 605.338 395.765 605.005 397.76 605 399.541 604.992 402.993 605.665 425.065 605.99 435.493 605.99 435.495 613.504 436 613.504 436Z" fill="url(#fill24)" fill-rule="evenodd"/><path d="M615.137 304 616 308.373 614 309Z" fill="url(#fill25)" fill-rule="evenodd"/><path d="M622.297 309.002C622.27 310.474 622 319.128 622 319.128 622.825 320.134 626.826 320.499 628.515 318.961 629.859 317.738 630 316.638 630 316.638L629.508 304 622.297 309.002Z" fill="url(#fill26)" fill-rule="evenodd"/><path d="M629.633 295 630.096 299.431 630.801 306.19 631 308.092C626.719 315.422 619.63 316.197 617.332 313.749 615.034 311.302 614 297.325 614 297.325L629.633 295Z" fill="url(#fill27)" fill-rule="evenodd"/><path d="M627.603 314C627.603 314 622.026 302.48 620.293 301.52 618.559 300.561 612.755 301.912 609.665 297.39 606.615 292.926 608.459 290.603 609.665 290.382 610.871 290.161 613.127 294.541 617.126 291.932 621.197 289.276 629.499 289.276 630.775 292.448 630.775 292.448 635.97 292.965 634.839 299.898 633.708 306.832 631.749 312.66 630.015 313.176L627.603 314Z" fill="url(#fill28)" fill-rule="evenodd"/><path d="M623.929 301.374C625.588 302.765 625.516 306.784 622.312 309L621 302.404C621.171 301.387 622.838 300.459 623.929 301.374Z" fill="url(#fill29)" fill-rule="evenodd"/><path d="M629.724 317.017C624.986 317.214 617.497 318.034 615.726 323.342 614.782 326.17 614.65 329.261 614.949 332.211 615.184 334.525 615.383 336.841 615.479 339.168 615.64 343.097 615.854 347.524 614.495 351.287L612 359.932C612 359.932 630.145 370.051 641.687 358.37 641.687 358.37 643.366 327.239 638.949 319.585 638.413 318.653 636.925 318.145 635.994 317.838 633.937 317.161 631.831 316.931 629.724 317.017Z" fill="url(#fill30)" fill-rule="evenodd"/><path d="M595.02 332.986C595.02 332.986 595.884 332.57 595.663 331.06 595.442 329.55 595 325.99 595 325.99 595 325.99 595.111 324.738 595.613 325.05 596.116 325.363 597.187 326.219 597.451 328.427 597.451 328.427 597.757 330.331 598.228 330.848 598.699 331.364 599.926 332.766 600 334.853 600 334.854 596.175 335.777 595.02 332.986Z" fill="url(#fill31)" fill-rule="evenodd"/><path d="M619.942 354.848C620.704 353.904 620.905 352.498 621.056 351.008 621.424 347.383 621.843 343.768 622.247 340.149 622.426 338.538 622.605 336.926 622.768 335.311 623.102 332.013 623.649 327.177 619.699 326.058 618.8 325.803 617.567 326.434 616.952 327.061 616.49 327.532 616.179 328.214 615.961 328.992 615.498 330.644 615.454 332.736 615.277 334.189 614.913 337.173 614.598 340.168 614.369 343.179 614.221 345.114 614.096 347.052 614.057 349.001 614.024 350.605 613.833 352.619 614.407 354.168 615.02 355.822 616.792 356.207 618.148 355.907 618.96 355.727 619.532 355.354 619.942 354.848Z" fill="url(#fill32)" fill-rule="evenodd"/><path d="M625 336C624.746 331.561 625.557 321.186 619.266 320.067 612.305 318.828 613.021 335.292 613.021 335.292L625 336Z" fill="#FFFFFF" fill-rule="evenodd"/><path d="M262.508 444.989C262.603 444.335 262.907 443.683 263.156 443.05 263.227 442.871 263.796 441.111 263.807 440.912 263.958 438.015 263.525 430.01 263.525 430.01L271.809 430C271.809 430 270.541 436.915 271.656 441.002L271.646 441.003C275.284 443.009 281.788 445.71 281.788 445.71 281.788 445.71 289.164 446.957 289.55 447.124 289.936 447.291 290.895 447.556 291.98 448.547 291.98 448.547 292.82 450.402 283.571 451.702 283.571 451.702 279.568 452.51 273.179 451.465 271.794 451.333 270.409 451.2 269.025 451.067 267.603 450.932 263.329 450.749 262.777 450.345 262.563 450.189 262.419 450.03 262.323 449.865 261.587 448.596 262.31 446.351 262.508 444.989Z" fill="url(#fill33)" fill-rule="evenodd"/><path d="M263.154 443.26C263.195 443.158 263.402 442.541 263.573 442 263.887 442.166 264.199 442.322 264.502 442.47 268.012 444.18 271.833 444.052 275.614 443.338 275.686 443.325 275.753 443.308 275.819 443.29 278.85 444.665 281.787 445.857 281.787 445.857 281.787 445.857 289.163 447.075 289.55 447.238 289.936 447.401 290.895 447.66 291.98 448.628 291.98 448.628 292.82 450.44 283.57 451.709 283.57 451.709 279.567 452.498 273.178 451.478 271.793 451.348 270.408 451.219 269.024 451.089 267.602 450.957 263.327 450.779 262.775 450.384 262.561 450.232 262.418 450.077 262.322 449.915 261.588 448.676 262.312 446.484 262.509 445.154 262.6 444.514 262.904 443.878 263.154 443.26Z" fill="url(#fill34)" fill-rule="evenodd"/><path d="M273.478 371.962C273.312 364.53 271.699 350.978 265.507 350.527 263.194 350.358 260.866 349.515 258.722 350.394 258.212 350.603 257.733 350.866 257.288 351.174 254.865 352.852 253.434 355.867 253.099 358.844 252.702 362.366 253.567 365.895 254.407 369.339 256.232 376.817 257.977 384.325 260.363 391.646 260.705 392.695 261.084 393.745 261.577 394.73 258.179 412.718 263.462 438 263.462 438L271.181 437.203C271.181 437.203 273.731 395.432 273.861 390.274 273.886 389.264 273.831 388.461 273.726 387.813 274.413 382.699 273.607 377.732 273.478 371.962Z" fill="url(#fill35)" fill-rule="evenodd"/><path d="M289.046 343.933C288.7 344.612 281.614 339.889 280.935 339.419 277.953 337.358 259.259 320.075 268.583 317.172 270.015 316.727 271.434 317.208 272.558 317.904 277.619 321.035 291 334.479 291 334.479 291 334.479 289.047 343.933 289.046 343.933Z" fill="#FFFFFF" fill-rule="evenodd"/><path d="M290.592 343.521C290.592 343.521 286.718 336.446 291 333.798L290.188 333C290.188 333 288.186 333.412 286.913 335.057 286.241 335.924 283.996 339.698 285.52 343.402 285.636 343.685 289.168 344 289.168 344L290.592 343.521Z" fill="url(#fill36)" fill-rule="evenodd"/><path d="M290.526 309.573C290.54 309.577 290.555 309.581 290.569 309.584 291 309.698 291.404 309.934 291.731 310.222 291.871 310.346 292.508 310.831 292.482 311.014 292.524 310.721 292.567 310.428 292.609 310.135 292.668 309.718 292.672 309.2 293.218 309.115 293.466 309.076 293.717 309.144 293.959 309.209 294.201 309.275 294.453 309.34 294.7 309.296 294.949 309.252 295.165 309.102 295.409 309.038 295.993 308.885 296.581 309.241 297.183 309.3 297.657 309.347 298.168 309.212 298.593 309.416 298.8 309.514 298.96 309.682 299.101 309.856 299.521 310.373 300.133 311.301 299.974 311.987 299.971 312.002 297.193 321.277 297.193 321.277 296.827 322.496 296.97 324.182 296.902 325.446 296.827 326.845 296.773 328.243 296.727 329.642 296.616 333.062 296.458 346.137 289.626 343.699 288.159 343.176 287.425 340.772 287.075 339.224 286.251 335.577 292.454 319.878 292.454 319.878L292.15 316.633C292.15 316.633 291.21 313.457 291.21 313.457 290.958 312.611 290.758 311.759 290.233 311.026 290.008 310.713 289.787 310.36 289.826 309.982 289.842 309.815 289.924 309.639 290.084 309.569 290.22 309.507 290.378 309.535 290.526 309.573Z" fill="url(#fill37)" fill-rule="evenodd"/><path d="M297.665 314C297.665 314 298.694 313.59 297.987 312.8L299.366 313.801C299.366 313.801 301.007 314.557 301 311.844 300.498 311.399 299.996 310.954 299.494 310.508 299.149 310.202 298.801 309.898 298.458 309.588 298.253 309.402 298.162 309.3 297.887 309.251 297.499 309.181 297.109 309.122 296.721 309.057 296.481 309.017 296.237 308.977 295.997 309.016 295.796 309.049 295.609 309.135 295.41 309.181 294.966 309.284 294.505 309.173 294.05 309.145 293.737 309.127 293.087 309.12 293.007 309.558 292.912 310.072 293.861 310.634 294.193 310.929 294.71 311.386 295.226 311.843 295.743 312.301 296.384 312.865 297.022 313.431 297.665 314Z" fill="url(#fill38)" fill-rule="evenodd"/><path d="M240.912 443.002C241.078 442.351 241.455 441.727 241.773 441.115 241.864 440.941 242.627 439.226 242.66 439.026 243.131 436.121 243.581 428 243.581 428L251.866 428.85C251.866 428.85 249.836 435.693 250.499 439.932L250.489 439.931C253.907 442.332 260.112 445.73 260.112 445.73 260.112 445.73 267.35 447.753 267.718 447.962 268.085 448.171 269.014 448.537 269.991 449.65 269.991 449.65 270.627 451.608 261.234 451.96 261.234 451.96 257.142 452.359 250.869 450.642 249.498 450.365 248.129 450.087 246.758 449.81 245.352 449.525 241.097 448.899 240.59 448.433 240.394 448.253 240.267 448.079 240.189 447.902 239.594 446.545 240.564 444.356 240.912 443.002Z" fill="url(#fill39)" fill-rule="evenodd"/><path d="M241.774 441.243C241.827 441.143 242.104 440.534 242.335 440 242.63 440.201 242.923 440.393 243.21 440.575 246.526 442.681 250.362 442.942 254.224 442.601 254.297 442.595 254.365 442.584 254.434 442.573 257.309 444.288 260.112 445.804 260.112 445.804 260.112 445.804 267.35 447.804 267.718 448.01 268.085 448.216 269.014 448.578 269.991 449.678 269.991 449.678 270.627 451.612 261.234 451.96 261.234 451.96 257.142 452.354 250.869 450.658 249.498 450.384 248.129 450.11 246.758 449.836 245.352 449.554 241.097 448.936 240.589 448.475 240.393 448.297 240.266 448.125 240.188 447.95 239.594 446.611 240.565 444.447 240.912 443.111 241.08 442.465 241.455 441.848 241.774 441.243Z" fill="url(#fill40)" fill-rule="evenodd"/><path d="M261.739 361.207C261.319 356.922 259.083 352.864 255.344 350.517 252.548 348.763 249.079 348.404 246.171 350.109 243.842 351.474 242.065 353.929 241.435 356.899 240.558 361.036 241.15 365.46 241.956 369.559 242.793 373.817 243.42 378.116 244.228 382.381 244.701 384.876 245.258 387.359 245.727 389.85 245.846 390.488 245.986 391.162 246.161 391.833 240.242 409.202 242.968 435.98 242.968 435.98L250.829 436C250.829 436 257.859 395.373 258.584 390.087 258.736 389.523 258.884 388.969 259.044 388.454 259.997 385.405 260.708 382.157 261.117 379.077 261.881 373.344 262.306 366.974 261.739 361.207Z" fill="url(#fill41)" fill-rule="evenodd"/><path d="M239.106 359.03C240.085 354.405 243.018 350.323 242.745 345.534 242.47 340.7 242.236 335.862 241.863 331.036 241.704 328.986 241.285 326.865 241.233 324.82 241.165 322.075 242.737 319.907 244.717 318.089 246.439 316.51 248.437 315.317 250.431 314.149 250.51 314.102 250.589 314.056 250.668 314.009 251.437 313.56 252.21 313.107 253.04 312.804 256.525 311.532 261.185 311.754 264.413 313.58 266.477 314.748 268.54 315.917 270.604 317.085 272.797 318.326 274.118 320.802 273.992 323.44 273.72 329.172 273.412 334.903 273.001 340.625 272.786 343.617 272.179 346.496 272.472 349.508 272.853 353.434 274.269 357.765 273.168 361.688 272.626 363.62 271.16 364.139 269.433 364.468 264.97 365.319 260.528 366.47 256.002 366.895 251.587 367.31 247.138 366.459 242.941 365.031 240.288 364.129 238.543 361.687 239.106 359.03Z" fill="url(#fill42)" fill-rule="evenodd"/><path d="M266 320 264.635 327 261 320.669 263.198 320.31 263.902 321.813 263.902 320.28Z" fill="url(#fill43)" fill-rule="evenodd"/><path d="M265.137 325 264 325.115 265.078 353.049 268.578 356 271 352.057Z" fill="url(#fill44)" fill-rule="evenodd"/><path d="M253 307.538 254.196 311.63C254.196 311.63 263.199 321.594 263.617 321.978 264.098 322.42 263.344 316.19 264 315.705L262.101 306 253 307.538Z" fill="url(#fill45)" fill-rule="evenodd"/><path d="M252 297.412 254.082 308.441 254.218 309.978C258.826 315.125 264.687 314.643 266.166 312.349 267.645 310.055 266.706 295 266.706 295L252 297.412Z" fill="url(#fill46)" fill-rule="evenodd"/><path d="M265.204 304 265 308.891 268 309Z" fill="#FFB5BE" fill-rule="evenodd"/><path d="M256.621 297.963C256.621 297.963 256.877 299.686 255.67 302.368 254.462 305.05 256.001 309.457 256.001 309.457L252.18 304.961 253.669 313C251.193 309.085 248.826 304.823 247.452 300.373 246.657 297.798 246.651 294.3 249.603 293.222 250.296 292.969 251.749 292.617 251.749 292.617 251.749 292.617 252.004 292.297 252.128 292.171 252.631 291.655 253.272 291.278 253.923 290.989 256.881 289.67 260.446 289.908 263.558 290.348 273.713 291.783 266.542 298.699 266.542 298.699L266.182 296.469C266.182 296.468 261.118 301.045 256.621 297.963Z" fill="url(#fill47)" fill-rule="evenodd"/><path d="M251.333 303.597C250.452 305.047 251.311 308.079 254 309L253.592 303.683C253.267 302.952 251.914 302.644 251.333 303.597Z" fill="url(#fill48)" fill-rule="evenodd"/><path d="M264.019 322 266 320.113 264.219 315C264.219 315 263.924 321.882 264.019 322Z" fill="url(#fill49)" fill-rule="evenodd"/><path d="M264 315.437 266.1 320.265 270 321 264 315Z" fill="url(#fill50)" fill-rule="evenodd"/><path d="M253 313.536 259.092 323 263 319.691 254.964 312Z" fill="url(#fill51)" fill-rule="evenodd"/><path d="M262.535 319 264 322 261 320.26Z" fill="url(#fill52)" fill-rule="evenodd"/><path d="M430.904 431.965 275.015 409.88C273.097 409.608 271.763 407.837 272.035 405.924L285.129 314.007C285.401 312.094 287.178 310.764 289.096 311.035L444.985 333.119C446.903 333.391 448.237 335.162 447.965 337.075L434.871 428.992C434.599 430.907 432.822 432.236 430.904 431.965Z" fill="#FFFFFF" fill-rule="evenodd"/><path d="M427.014 423.965 283 403.488C281.092 403.217 279.764 401.448 280.035 399.538L291.039 322.003C291.31 320.093 293.077 318.764 294.986 319.035L439 339.512C440.908 339.783 442.236 341.552 441.965 343.462L430.961 420.997C430.69 422.907 428.923 424.236 427.014 423.965Z" fill="url(#fill53)" fill-rule="evenodd"/><path d="M381.577 385 371.155 358 353.222 380.619 346.856 388.649 346.856 388.649 340.133 371.233 328.567 385.823 317 400.413 335.289 403.239 353.579 406.064 363.645 407.619 392 412Z" fill="#FFFFFF" fill-rule="evenodd"/><path d="M362.878 350.662C362.002 356.667 356.644 360.79 350.913 359.872 345.181 358.953 341.246 353.342 342.122 347.338 342.999 341.333 348.356 337.21 354.087 338.128 359.818 339.046 363.754 344.657 362.878 350.662Z" fill="#FFFFFF" fill-rule="evenodd"/><path d="M263.264 351.967C262.684 352.583 254.133 344.465 253.459 343.832 250.499 341.056 234.542 320.896 246.217 320.015 248.011 319.879 249.547 320.69 250.684 321.654 255.803 325.99 268 342.737 268 342.737 268 342.737 263.265 351.966 263.264 351.967Z" fill="#FFFFFF" fill-rule="evenodd"/><path d="M264.515 351.694 268.052 349.897 268.744 349.26 269 348.501 268.565 345.234 268.127 342 263.258 342.473 260 345.824 260 350.017 262.895 352Z" fill="url(#fill54)" fill-rule="evenodd"/><path d="M303.869 345.264C304.059 344.603 303.489 344.18 303.491 343.527 303.493 343.049 303.873 342.751 304.178 342.422 304.661 341.9 304.217 341.492 303.982 340.877 303.929 340.739 304.799 339.97 304.897 339.862 305.215 339.509 305.652 339.24 305.904 338.835 306.14 338.457 305.912 337.908 305.539 337.684 305.179 337.468 304.833 337.618 304.469 337.729 303.635 337.983 302.801 338.237 301.967 338.492 301.659 338.586 301.318 338.656 301.035 338.803 300.804 338.924 300.569 338.972 300.366 338.739 300.216 338.567 300.193 338.321 300.255 338.106 300.317 337.893 300.455 337.705 300.603 337.533 300.752 337.361 300.915 337.197 301.039 337.009 301.367 336.513 301.391 335.852 301.101 335.335 301.025 335.201 300.921 335.069 300.768 335.02 300.558 334.952 300.319 335.066 300.19 335.236 300.018 335.46 299.985 335.763 299.873 336.016 299.645 336.525 299.296 336.981 298.9 337.386 298.9 337.386 297.314 338.626 297.314 338.626L294.825 340.569 291.983 341.924C291.983 341.924 266.934 341.474 263.958 343.459 262.695 344.302 260.828 345.794 261.013 347.377 261.811 354.21 279.927 349.352 281.246 348.967 282.439 348.618 291.578 346.987 292.865 346.939 292.865 346.939 302.662 346.578 302.677 346.577 303.311 346.51 303.726 345.761 303.869 345.264Z" fill="url(#fill55)" fill-rule="evenodd"/><path d="M262.759 352C262.759 352 263.654 343.625 268 341.674L267.405 341.001C267.405 341.001 263.597 340.937 262.722 341.711 261.915 342.423 258.378 346.667 259.095 350.646 259.15 350.951 262.288 351.854 262.288 351.854L262.759 352Z" fill="url(#fill56)" fill-rule="evenodd"/><path d="M663.5 224C672.159 224 672.174 211 663.5 211 654.84 211 654.826 224 663.5 224L663.5 224Z" fill="url(#fill57)" fill-rule="evenodd"/><path d="M508.5 164C522.489 164 522.511 142 508.5 142 494.511 142 494.489 164 508.5 164L508.5 164Z" fill="url(#fill58)" fill-rule="evenodd"/><path d="M720.5 289C734.489 289 734.511 267 720.5 267 706.512 267 706.488 289 720.5 289L720.5 289Z" fill="url(#fill59)" fill-rule="evenodd"/><path d="M345.479 153.995C346.159 153.995 346.84 153.995 347.521 153.995 348.687 154.041 349.775 153.783 350.786 153.22 351.836 152.857 352.745 152.238 353.513 151.36 354.339 150.546 354.923 149.58 355.265 148.466 355.796 147.393 356.039 146.238 355.995 145 355.894 144.203 355.793 143.406 355.692 142.609 355.29 141.085 354.563 139.762 353.513 138.64 351.854 137.024 349.816 136.005 347.521 136.005 346.841 136.005 346.16 136.005 345.479 136.005 344.313 135.959 343.225 136.217 342.214 136.78 341.163 137.143 340.255 137.762 339.487 138.64 338.661 139.454 338.077 140.42 337.735 141.534 337.204 142.606 336.961 143.762 337.005 145 337.106 145.797 337.207 146.594 337.308 147.391 337.71 148.915 338.437 150.238 339.487 151.36 341.146 152.976 343.184 153.995 345.479 153.995L345.479 153.995Z" fill="url(#fill60)" fill-rule="evenodd"/><path d="M278 186C283.329 186 283.338 178 278 178 272.671 178 272.662 186 278 186L278 186Z" fill="url(#fill61)" fill-rule="evenodd"/><path d="M594.5 185C603.159 185 603.174 171 594.5 171 585.84 170.999 585.826 185 594.5 185L594.5 185Z" fill="url(#fill62)" fill-rule="evenodd"/><path d="M205 244C216.99 244 217.01 226 205 226 193.01 225.999 192.99 244 205 244L205 244Z" fill="url(#fill63)" fill-rule="evenodd"/></g></svg>